/* XPM */
static char *result[] = {
/* columns rows colors chars-per-pixel */
"32 33 119 2 ",
"   c #020D01",
".  c #0A0D02",
"X  c #190A03",
"o  c #031401",
"O  c #0B1603",
"+  c #021A01",
"@  c #0C1A04",
"#  c #141D04",
"$  c #230D03",
"%  c #291607",
"&  c #3E1604",
"*  c #331B08",
"=  c #3B1D09",
"-  c #032502",
";  c #052C04",
":  c #172206",
">  c #1F2D0D",
",  c #063404",
"<  c #063C05",
"1  c #0C340A",
"2  c #0A3A09",
"3  c #113F0F",
"4  c #143D12",
"5  c #262E09",
"6  c #362A0A",
"7  c #3B2C0B",
"8  c #2B320A",
"9  c #37350C",
"0  c #39370D",
"q  c #401705",
"w  c #431A07",
"e  c #481D09",
"r  c #412B0B",
"t  c #45380E",
"y  c #084107",
"u  c #0B440A",
"i  c #124D11",
"p  c #194817",
"a  c #1B4D19",
"s  c #145312",
"d  c #1F561D",
"f  c #1C5B1B",
"g  c #35420D",
"h  c #3F430F",
"j  c #2B4E1E",
"k  c #21591F",
"l  c #35551A",
"z  c #1C611A",
"x  c #1F681E",
"c  c #224920",
"v  c #245623",
"b  c #3A5722",
"n  c #3C5925",
"m  c #256323",
"M  c #2B6D27",
"N  c #2A6529",
"B  c #2A6928",
"V  c #306A2E",
"C  c #267324",
"Z  c #2F772D",
"A  c #2E7D2C",
"S  c #317F2E",
"D  c #367334",
"F  c #347F33",
"G  c #4D5213",
"H  c #535413",
"J  c #575B16",
"K  c #595C15",
"L  c #545D1A",
"P  c #5E6117",
"I  c #5C641B",
"U  c #616417",
"Y  c #636618",
"T  c #666918",
"R  c #6B6D19",
"E  c #6E701A",
"W  c #72751B",
"Q  c #435E25",
"!  c #416226",
"~  c #4F6624",
"^  c #516E2A",
"/  c #447638",
"(  c #2E832D",
")  c #31822F",
"_  c #348732",
"`  c #348C32",
"'  c #3D813B",
"]  c #3B8F39",
"[  c #369034",
"{  c #3C953A",
"}  c #3E993C",
"|  c #41993F",
" . c #448242",
".. c #458D43",
"X. c #4E8C44",
"o. c #528F45",
"O. c #469644",
"+. c #4C974A",
"@. c #4F9A4D",
"#. c #539B4E",
"$. c #529F50",
"%. c #46A244",
"&. c #4EA44C",
"*. c #4FAD4D",
"=. c #51A74F",
"-. c #56A553",
";. c #55A953",
":. c #59AB57",
">. c #5BAF59",
",. c #54B352",
"<. c #58B756",
"1. c #59B857",
"2. c #5FB65C",
"3. c #5DBB5B",
"4. c #65C563",
"5. c #67C965",
"6. c #68CA66",
"7. c #6BCE69",
"8. c #6CD06A",
/* pixels */
"W W W W W W W W W W W W W W W W W W W W W W W W W W W W W W W W ",
"W W W W W W W W W W W W W W W W W W W W W W W W W W W W W W W W ",
"W W W W W W W W W W W W W W W W W W W W W W W W W W W W W W W W ",
"W W W W W W W W W W W W W W W W W W W W W W W W W W W W W W W W ",
"W W W W W W W W W W I J J J J R I Q Q L L K W W W W W W W W W W ",
"W W W W W W W W E ~ X.#.#.#.#.n / 4.4.2.$.X.~ R W W W W W W W W ",
"W W W W W W W E ^ 2.7.8.8.6.3.D O.5.7.7.7.8.-.L W W W W W W W W ",
"W W W W W W E ^ 2.5.<.<.,.| B m C | *.1.4.6.:.L W W W W W W W W ",
"W W W W W W L -.5.%._ S m M f i , z ( ( _ _ m H W W W W W W W W ",
"W W W W W W L O.{ ` ) C i i 2 , , 1 u 2 < s v b Y W W W W W W W ",
"W W W W W W K B [ A i < 1 N O.D 4 ..' V a @.7.4.o.I W W W W W W ",
"W W W W W W R j Z k < a +.6.8.6.+. .7.7.O.c *.5.3.! W W W W W W ",
"W W W W W W L $.=.@.a { 6.7.7.7.4.2.6.7.3.A ` } { l W W W W W W ",
"W W W W W W L >.7.&.) ` O.3.4.1.F ] ,.,.{ ` Z d 4 > Y W W W W W ",
"W W W W W W ~ ;.F 3 1 p C ( ` z ; f ` [ _ x 2 , , , g W W W W W ",
"W W W W W W b z < < < < < 2 u < , 2 z C s < - y < , g W W W W W ",
"W W W W W W 5 ; < < < < < - < < < ; ; ; , , , < ; + H W W W W W ",
"W W W W W W G o + - ; < < , , < < < , < , , - - o @ I W W W W W ",
"W W W W W W R 5 o o + - ; ; o - < < , - + o o o 8 K W W W W W W ",
"W W W W W W W R H @ + + o + o   + + + + o   + : R W W W W W W W ",
"W W W W W W W W W h + o o + o   o o o o . O # G W W W W W W W W ",
"W W W W W W W W W W K 8 : # . $ $ o # h U U Y W W W W W W W W W ",
"W W W W W W W W W W W W E P * w w 7 R W W W W W W W W W W W W W ",
"W W W W W W W W W W W W W Y w e e t W W W W W W W W W W W W W W ",
"W W W W W W W W W W W W W T = w w t W W W W W W W W W W W W W W ",
"W W W W W W W W W W W W W H * & q r T W W W W W W W W W W W W W ",
"W W W W W W W W W W W W H % X % $ $ 6 T W W W W W W W W W W W W ",
"W W W W W W W W W W W E t 9 0 0 0 0 0 H W W W W W W W W W W W W ",
"W W W W W W W W W W W W W W W W W W W W W W W W W W W W W W W W ",
"W W W W W W W W W W W W W W W W W W W W W W W W W W W W W W W W ",
"W W W W W W W W W W W W W W W W W W W W W W W W W W W W W W W W ",
"W W W W W W W W W W W W W W W W W W W W W W W W W W W W W W W W ",
"W W W W W W W W W W W W W W W W W W W W W W W W W W W W W W W W "
};
