/* XPM */
static char *_642626305261[] = {
/* columns rows colors chars-per-pixel */
"62 64 209 2 ",
"   c #030E01",
".  c #0D0D02",
"X  c #1C0E03",
"o  c #021501",
"O  c #0A1302",
"+  c #031B01",
"@  c #0C1C03",
"#  c #111D04",
"$  c #200E04",
"%  c #280F04",
"&  c #241105",
"*  c #2C1205",
"=  c #211A06",
"-  c #2A1807",
";  c #311104",
":  c #3C1605",
">  c #351807",
",  c #3E1A06",
"<  c #3D1C09",
"1  c #032402",
"2  c #0B2404",
"3  c #052D03",
"4  c #152205",
"5  c #1B2607",
"6  c #172905",
"7  c #1F2907",
"8  c #053404",
"9  c #093406",
"0  c #063B05",
"q  c #083B06",
"w  c #0B3609",
"e  c #0C3C0A",
"r  c #15360B",
"t  c #1C340B",
"y  c #133E10",
"u  c #222508",
"i  c #2C2208",
"p  c #242E09",
"a  c #292D0A",
"s  c #3B2509",
"d  c #342C0B",
"f  c #3B2A0B",
"g  c #253109",
"h  c #2C330B",
"j  c #273B0A",
"k  c #32360B",
"l  c #343C0C",
"z  c #3E3C0E",
"x  c #2D3E12",
"c  c #411705",
"v  c #421906",
"b  c #441B08",
"n  c #481C09",
"m  c #45220A",
"M  c #422D0B",
"N  c #44310D",
"B  c #48340E",
"V  c #473C0F",
"C  c #084007",
"Z  c #0C430B",
"A  c #0E490D",
"S  c #12430F",
"D  c #144612",
"F  c #134C12",
"G  c #1A4C17",
"H  c #145213",
"J  c #195517",
"K  c #175A16",
"L  c #195B17",
"P  c #1C531A",
"I  c #1C5B1A",
"U  c #3B430E",
"Y  c #224717",
"T  c #24521D",
"R  c #225C1F",
"E  c #2E591F",
"W  c #37551C",
"Q  c #1E641C",
"!  c #1F681E",
"~  c #20641E",
"^  c #20691E",
"/  c #235721",
"(  c #235C21",
")  c #295C27",
"_  c #335A24",
"`  c #246222",
"'  c #296527",
"]  c #266B24",
"[  c #296C27",
"{  c #2C642A",
"}  c #2C6D2A",
"|  c #366526",
" . c #306B2D",
".. c #267424",
"X. c #287426",
"o. c #287826",
"O. c #2D742B",
"+. c #2D7C2B",
"@. c #31742F",
"#. c #307D2E",
"$. c #366C32",
"%. c #357433",
"&. c #3C7637",
"*. c #337B31",
"=. c #3B7C35",
"-. c #3A7B38",
";. c #43430F",
":. c #404B0F",
">. c #4C4411",
",. c #454A11",
"<. c #4A4C12",
"1. c #514611",
"2. c #514C12",
"3. c #4C5313",
"4. c #44541A",
"5. c #4A5E1C",
"6. c #535614",
"7. c #565716",
"8. c #555A14",
"9. c #5B5D16",
"0. c #5A5F18",
"q. c #46641E",
"w. c #5D6016",
"e. c #55621C",
"r. c #5B641B",
"t. c #5D691E",
"y. c #626517",
"u. c #636618",
"i. c #686718",
"p. c #646A1A",
"a. c #6A6D19",
"s. c #6E711A",
"d. c #72751B",
"f. c #74781C",
"g. c #425F26",
"h. c #4B6223",
"j. c #456728",
"k. c #576A23",
"l. c #536A24",
"z. c #546F28",
"x. c #49732C",
"c. c #54722B",
"v. c #59742A",
"b. c #597A2E",
"n. c #446D30",
"m. c #437B39",
"M. c #537B33",
"N. c #5A7C30",
"B. c #507E38",
"V. c #606E20",
"C. c #617123",
"Z. c #2E812C",
"A. c #31832E",
"S. c #31882F",
"D. c #348532",
"F. c #348C32",
"G. c #398E37",
"H. c #3D833B",
"J. c #3A8739",
"K. c #379135",
"L. c #399137",
"P. c #3C943A",
"I. c #3F993D",
"U. c #45853E",
"Y. c #4E843D",
"T. c #418B3F",
"R. c #53843A",
"E. c #558A3E",
"W. c #42943F",
"Q. c #419C3F",
"!. c #498740",
"~. c #448C42",
"^. c #518940",
"/. c #459443",
"(. c #499546",
"). c #449B42",
"_. c #489D46",
"`. c #4B9649",
"'. c #4D9B4A",
"]. c #539246",
"[. c #589142",
"{. c #549649",
"}. c #549B4C",
"|. c #529D50",
" X c #46A244",
".X c #49A446",
"XX c #4DA54B",
"oX c #4DAB4C",
"OX c #53A24F",
"+X c #50AC4E",
"@X c #54A552",
"#X c #59A552",
"$X c #54AA53",
"%X c #5BAB55",
"&X c #56B454",
"*X c #58B456",
"=X c #59BA57",
"-X c #5DB45B",
";X c #5DBC5C",
":X c #60B45A",
">X c #61BC5E",
",X c #62BE60",
"<X c #5FC15E",
"1X c #61C35F",
"2X c #64C463",
"3X c #66C864",
"4X c #69CA67",
"5X c #6ACC69",
"6X c #6DD16B",
/* pixels */
"d.d.d.d.d.d.d.d.d.d.d.d.d.d.d.d.d.d.d.d.d.d.d.d.d.d.d.d.d.d.d.d.d.d.d.d.d.d.d.d.d.d.d.d.d.d.d.d.d.d.d.d.d.d.d.d.d.d.d.d.d.d.",
"d.d.d.d.d.d.d.d.d.d.d.d.d.d.d.d.d.d.d.d.d.d.d.d.d.d.d.d.d.d.d.d.d.d.d.d.d.d.d.d.d.d.d.d.d.d.d.d.d.d.d.d.d.d.d.d.d.d.d.d.d.d.",
"d.d.d.d.d.d.d.d.d.d.d.d.d.d.d.d.d.d.d.d.d.d.d.d.d.d.d.d.d.d.d.d.d.d.d.d.d.d.d.d.d.d.d.d.d.d.d.d.d.d.d.d.d.d.d.d.d.d.d.d.d.d.",
"d.d.d.d.d.d.d.d.d.d.d.d.d.d.d.d.d.d.d.d.d.d.d.d.d.d.d.d.d.d.d.d.d.d.d.d.d.d.d.d.d.d.d.d.d.d.d.d.d.d.d.d.d.d.d.d.d.d.d.d.d.d.",
"d.d.d.d.d.d.d.d.d.d.d.d.d.d.d.d.d.d.d.d.d.d.d.d.d.d.d.d.d.d.d.d.d.d.d.d.d.d.d.d.d.d.d.d.d.d.d.d.d.d.d.d.d.d.d.d.d.d.d.d.d.d.",
"d.d.d.d.d.d.d.d.d.d.d.d.d.d.d.d.d.d.d.d.d.d.d.f.d.d.f.d.d.d.d.d.d.d.d.f.d.d.d.d.d.d.d.d.d.d.d.d.d.d.d.d.d.d.d.d.d.d.d.d.d.d.",
"d.d.d.d.d.d.d.d.d.d.d.d.d.d.d.d.d.d.d.d.d.d.f.d.d.d.d.d.d.d.d.d.d.d.f.d.d.d.d.d.d.d.d.d.d.d.d.d.d.d.d.d.d.d.d.d.d.d.d.d.d.d.",
"d.d.d.d.d.d.d.d.d.d.d.d.d.d.d.d.d.d.d.s.a.a.u.a.i.i.i.a.a.s.s.s.p.p.t.p.p.p.i.a.a.a.d.d.d.d.d.d.d.d.d.d.d.d.d.d.d.d.d.d.d.d.",
"d.d.d.d.d.d.d.d.d.d.d.d.d.d.d.d.d.d.d.a.y.0.r.0.0.0.0.0.0.i.i.V.t.h.h.h.h.h.0.0.0.y.p.d.d.d.d.d.d.d.d.d.d.d.d.d.d.d.d.d.d.d.",
"d.d.d.d.d.d.d.d.d.d.d.d.d.d.d.d.d.s.p.v.z.c.c.c.c.c.c.c.z.k.k.l.c.Y.Y.Y.Y.B.M.c.c.z.k.p.a.d.d.d.d.d.d.d.d.d.d.d.d.d.d.d.d.d.",
"d.d.d.d.d.d.d.d.d.d.d.d.d.d.d.d.s.k.z.M.E.^.}.{.{.{.{.{.^.n.g.n.!.%X;X:X:X%X#X}.^.^.M.z.V.a.d.d.d.d.d.d.d.d.d.d.d.d.d.d.d.d.",
"d.d.d.d.d.d.d.d.d.d.d.d.d.d.s.a.p.b.E.}.%X-X-X-X,X-X-X-X}.m.$.&.}.,X5X5X4X3X>X-X-X%X}.R.c.p.a.d.d.d.d.d.d.d.d.d.d.d.d.d.d.d.",
"d.d.d.d.d.d.d.d.d.d.d.d.d.s.s.V.c.[.:X,X3X4X4X4X4X4X2X;X$XH.%.T.XX;X3X4X5X5X5X4X5X4X-X@XB.r.u.d.d.d.d.d.d.d.d.d.d.d.d.d.d.d.",
"d.d.d.d.d.d.d.d.d.d.d.d.d.a.C.N.[.%X2X3X3X3X3X2X,X;X*XXXT.%.O.D./.+X;X;X<X2X4X5X6X6X4X%XB.k.y.d.d.d.d.d.d.d.d.d.d.d.d.d.d.d.",
"d.d.d.d.d.d.d.d.d.d.d.d.s.V.c.[.-X,X2X;X*X&X*X&X+X XP.%.' ] ` ] +.L. XoX&X&X;X1X3X3X>X@XR.e.u.d.d.d.d.d.d.d.d.d.d.d.d.d.d.d.",
"d.d.d.d.d.d.d.d.d.d.d.a.p.v.E.%X2X<X&XoX).).).P.J.J.#.[ ~ I J H I X.D.P.I. X X.XoXXX_.T.x.7.u.d.d.d.d.d.d.d.d.d.d.d.d.d.d.d.",
"d.d.d.d.d.d.d.d.d.d.d.p.r.b.}.-X1X&X XP.S.A.A.} ] ' ] ` I H A e Z I ^ +.Z.Z.A.A.D.A.O.[ _ 3.y.d.d.d.d.d.d.d.d.d.d.d.d.d.d.d.",
"d.d.d.d.d.d.d.d.d.f.d.p.e.M.}.+XoX XP.F.A.+.X.~ I I J F S e e 3 9 Z F I Q K K I Q ! ( / W 4.0.a.s.d.f.d.d.d.d.d.d.d.d.d.d.d.",
"d.d.d.d.d.d.d.d.d.d.d.p.e.x.W.Q.P.K.F.A.+.o.^ K F F F D Z e 9 9 9 e S A A C Z Z F L ` ) | g.l.r.a.d.d.d.d.d.d.d.d.d.d.d.d.d.",
"d.d.d.d.d.d.d.d.d.d.d.i.e.j.=.F.K.F.S.o.^ K F Z e F I ] ' / G w y / ' ` ( P D D I *.~.`.`.].E.N.C.a.s.d.d.d.d.d.d.d.d.d.d.d.",
"d.d.d.d.d.d.d.d.d.d.d.a.w.q. .#.F.A.+.Q F Z C e D ) %.~.(.H. .P / &.~.U.H.%.{ / } /.$X2X3X>X%X[.M.k.a.s.f.d.d.d.d.d.d.d.d.d.",
"d.d.d.d.d.d.d.d.d.d.d.s.u.5.E ' +.X.` H Z C F ( %.~.@X*X-X*X'.=.%.H.`.$X-X$X`.-.$.$.~.-X3X1X>X%XR.l.t.d.d.d.d.d.d.d.d.d.d.d.",
"d.d.d.d.d.d.d.d.d.d.d.s.u.5._  .*.} ( D Z D ( U.@X>X4X5X5X5X>X@X`.~.|.,X6X5X>X'.%.) %.'.&X>X>X*XY.j.r.d.d.d.d.d.d.d.d.d.d.d.",
"d.d.d.d.d.d.d.d.d.f.d.a.r.c.m.!.~.~.-.( F ` D.OX,X5X5X6X5X6X5X,X-X@X-X5X6X6X2X*X~. .@.P. XoX+X.X=.j.r.d.d.d.d.d.d.d.d.d.d.d.",
"d.d.d.d.d.d.d.d.d.d.d.p.r.M.{.@X@X@X`.%.( O.).&X3X4X4X5X4X4X4X,X>X-X;X1X4X3X1X=X_.S.A.D.F.G.G.A.| W e.s.d.d.d.d.d.d.d.d.d.d.",
"d.d.d.d.d.d.d.d.d.d.d.u.r.M.#X,X,X-XXXJ.O.D.P..X&X;X2X3X4X3X;XXX_.`.oX=X;X;X&XXXQ.F.S.A.#.} ` R Y Y 3.y.d.d.d.d.d.d.d.d.d.d.",
"d.d.d.d.d.d.d.d.d.d.d.u.5.R.%X,X2X$X/.*.O.+.D.G.).oX&X;X=X$X_.*.O.D.P.XXoXoX XP.K.S.+.X.~ T F y 6 t U e.a.d.d.d.d.d.d.d.d.d.",
"d.d.d.d.d.d.d.d.d.d.d.p.l.R.$X$X/.*.` P P P ( X.Z.K.I.).).F.[ P F ( O.L.Q.I.P.K.A.o.~ J S r e w 9 9 U ,.w.d.d.d.d.d.d.d.d.d.",
"d.d.d.d.d.d.d.d.d.f.d.p.h.Y.(.J.[ J Z w w S F I ! ..X.+...Q A 8 9 A Q +.S.S.S.Z...Q A w 8 8 8 0 8 9 g U w.d.d.d.d.d.d.d.d.d.",
"d.d.d.d.d.d.d.d.d.d.s.t.j.| O.~ F Z 0 0 0 w Z Z A F H K H A 0 8 8 e H Q o.Z...! K S q 3 3 0 0 0 0 8 r U w.d.d.d.d.d.d.d.d.d.",
"d.d.d.d.d.d.d.d.d.d.d.e.W Y P A 0 0 0 0 0 0 0 0 0 8 q q 0 C 0 0 8 8 e F I Q Q A Z 8 3 3 8 0 0 0 8 9 Y :.w.d.d.d.d.d.d.d.d.d.",
"d.d.d.d.d.d.d.d.d.f.s.7.x t w 8 0 0 C 0 C 0 0 0 8 8 3 8 0 0 0 0 8 3 8 8 e Z C C q 8 8 8 8 0 0 8 3 2 j 3.p.d.f.d.d.d.d.d.d.d.",
"d.d.d.d.d.d.d.d.d.d.d.8.l 6 1 3 8 8 0 8 0 0 C 0 0 3 8 8 0 0 C 0 0 8 3 3 3 3 8 8 8 8 8 8 8 8 3 3 + @ l 8.a.d.d.d.d.d.d.d.d.d.",
"d.d.d.d.d.d.d.d.d.d.d.u.,.p + + 1 1 3 3 3 0 0 0 0 8 8 8 0 0 C 0 0 0 8 8 8 e 8 8 8 8 3 3 1 1 1 + o 2 U w.a.d.d.d.d.d.d.d.d.d.",
"d.d.d.d.d.d.d.d.d.d.d.i.8.l # + + + + 1 1 8 8 0 0 8 8 3 1 0 0 0 0 0 0 0 8 8 8 8 3 3 1 1 1 + + @ 4 h 3.u.s.d.d.d.d.d.d.d.d.d.",
"d.d.d.d.d.d.d.d.d.d.d.s.p.,.p @ o + o + + 1 3 3 8 3 1 + + 1 3 0 0 0 0 0 8 3 1 1 + + o o o + 4 p l 3.w.s.d.d.d.d.d.d.d.d.d.d.",
"d.d.d.d.d.d.d.d.d.d.d.d.s.8.U h 7 @ O o + + 1 1 1 1 1 o o o 1 3 8 3 8 3 1 1 1 + o o   o o @ p :.8.y.s.d.d.d.d.d.d.d.d.d.d.d.",
"d.d.d.d.d.d.d.d.d.d.d.d.d.a.u.8.,.g + o + + + + + + + o o o o + 1 1 1 + + + + o     o o + 4 z w.a.s.d.d.d.d.d.d.d.d.d.d.d.d.",
"d.d.d.d.d.d.d.d.d.d.d.d.d.d.d.a.w.U 7 @ o o + o + o o o o   o o o + + + o o o   o   O + 4 h 3.a.f.d.f.d.d.d.d.d.d.d.d.d.d.d.",
"d.d.d.d.d.d.d.d.d.d.d.d.d.d.d.d.a.7.l 5 + o o o + o + o o     o o o o + o o O   O O O @ g ,.w.s.d.d.d.d.d.d.d.d.d.d.d.d.d.d.",
"d.d.d.d.d.d.d.d.d.d.d.d.d.d.d.d.d.p.6.U p 6 @ @ @ o o O   . . . O o o o @ 4 u a h h h l ,.9.a.d.d.d.d.d.d.d.d.d.d.d.d.d.d.d.",
"d.d.d.d.d.d.d.d.d.d.d.d.d.d.d.d.d.s.a.w.3.l p 5 4 # # . . X $ X X O O # u k ,.6.8.8.8.0.u.a.d.d.d.d.d.d.d.d.d.d.d.d.d.d.d.d.",
"d.d.d.d.d.d.d.d.d.d.d.d.d.d.d.d.d.d.d.a.u.8.<.U U l k = X % ; ; * = u k :.6.y.a.a.a.a.d.d.d.d.d.d.d.d.d.d.d.d.d.d.d.d.d.d.d.",
"d.d.d.d.d.d.d.d.d.d.d.d.d.d.d.d.d.d.d.d.s.a.a.a.u.w.1.f > : c c , s V 7.i.a.s.d.d.d.d.d.d.d.d.d.d.d.d.d.d.d.d.d.d.d.d.d.d.d.",
"d.d.d.d.d.d.d.d.d.d.d.d.d.d.d.d.d.d.d.f.d.d.d.f.s.a.7.N b v v n m M >.a.d.d.d.d.d.d.d.d.d.d.d.d.d.d.d.d.d.d.d.d.d.d.d.d.d.d.",
"d.d.d.d.d.d.d.d.d.d.d.d.d.d.d.d.d.d.d.d.d.d.d.d.d.a.9.B s v n n m N 1.a.d.d.d.d.d.d.d.d.d.d.d.d.d.d.d.d.d.d.d.d.d.d.d.d.d.d.",
"d.d.d.d.d.d.d.d.d.d.d.d.d.d.d.d.d.d.d.d.d.d.d.d.s.a.9.B b b n n m N 2.a.f.d.d.d.d.d.d.d.d.d.d.d.d.d.d.d.d.d.d.d.d.d.d.d.d.d.",
"d.d.d.d.d.d.d.d.d.d.d.d.d.d.d.d.d.d.d.d.d.d.d.d.d.a.9.B < v v c m M 2.a.f.d.d.d.d.d.d.d.d.d.d.d.d.d.d.d.d.d.d.d.d.d.d.d.d.d.",
"d.d.d.d.d.d.d.d.d.d.d.d.d.d.d.d.d.d.d.d.d.d.d.d.d.i.6.M , , c c b M 1.p.d.d.d.d.d.d.d.d.d.d.d.d.d.d.d.d.d.d.d.d.d.d.d.d.d.d.",
"d.d.d.d.d.d.d.d.d.d.d.d.d.d.d.d.d.d.d.d.d.d.d.d.s.9.1.f > : : c , m V 9.a.s.d.d.d.d.d.d.d.d.d.d.d.d.d.d.d.d.d.d.d.d.d.d.d.d.",
"d.d.d.d.d.d.d.d.d.d.d.d.d.d.d.d.d.d.d.d.d.d.d.i.9.;.f - & ; ; ; * > s V 7.i.d.d.d.d.d.d.d.d.d.d.d.d.d.d.d.d.d.d.d.d.d.d.d.d.",
"d.d.d.d.d.d.d.d.d.d.d.d.d.d.d.d.d.d.d.d.d.d.s.w.1.d - & & & * * & & - s ;.9.a.s.d.d.d.d.d.d.d.d.d.d.d.d.d.d.d.d.d.d.d.d.d.d.",
"d.d.d.d.d.d.d.d.d.d.d.d.d.d.d.d.d.d.d.d.d.d.a.8.;.d i i i i i i i i i d V 6.u.s.d.d.d.d.d.d.d.d.d.d.d.d.d.d.d.d.d.d.d.d.d.d.",
"d.d.d.d.d.d.d.d.d.d.d.d.d.d.d.d.d.d.d.d.d.s.i.8.;.z z z z z V z z z z z ;.6.w.s.d.d.d.d.d.d.d.d.d.d.d.d.d.d.d.d.d.d.d.d.d.d.",
"d.d.d.d.d.d.d.d.d.d.d.d.d.d.d.d.d.d.d.d.d.d.s.i.w.9.9.9.9.9.w.9.9.9.9.9.w.y.a.d.d.d.d.d.d.d.d.d.d.d.d.d.d.d.d.d.d.d.d.d.d.d.",
"d.d.d.d.d.d.d.d.d.d.d.d.d.d.d.d.d.d.d.d.d.d.d.d.d.d.d.d.d.d.d.d.d.d.d.d.d.d.d.d.d.d.d.d.d.d.d.d.d.d.d.d.d.d.d.d.d.d.d.d.d.d.",
"d.d.d.d.d.d.d.d.d.d.d.d.d.d.d.d.d.d.d.d.d.d.d.d.d.d.f.f.f.d.f.d.d.d.d.f.d.f.d.d.d.d.d.d.d.d.d.d.d.d.d.d.d.d.d.d.d.d.d.d.d.d.",
"d.d.d.d.d.d.d.d.d.d.d.d.d.d.d.d.d.d.d.d.d.d.d.d.d.d.d.d.d.d.d.d.d.d.d.d.d.d.d.d.d.d.d.d.d.d.d.d.d.d.d.d.d.d.d.d.d.d.d.d.d.d.",
"d.d.d.d.d.d.d.d.d.d.d.d.d.d.d.d.d.d.d.d.d.d.d.d.d.d.d.d.d.d.d.d.d.d.d.d.d.d.d.d.d.d.d.d.d.d.d.d.d.d.d.d.d.d.d.d.d.d.d.d.d.d.",
"d.d.d.d.d.d.d.d.d.d.d.d.d.d.d.d.d.d.d.d.d.d.d.d.d.d.d.d.d.d.d.d.d.d.d.d.d.d.d.d.d.d.d.d.d.d.d.d.d.d.d.d.d.d.d.d.d.d.d.d.d.d.",
"d.d.d.d.d.d.d.d.d.d.d.d.d.d.d.d.d.d.d.d.d.d.d.d.d.d.d.d.d.d.d.d.d.d.d.d.d.d.d.d.d.d.d.d.d.d.d.d.d.d.d.d.d.d.d.d.d.d.d.d.d.d.",
"d.d.d.d.d.d.d.d.d.d.d.d.d.d.d.d.d.d.d.d.d.d.d.d.d.d.d.d.d.d.d.d.d.d.d.d.d.d.d.d.d.d.d.d.d.d.d.d.d.d.d.d.d.d.d.d.d.d.d.d.d.d.",
"d.d.d.d.d.d.d.d.d.d.d.d.d.d.d.d.d.d.d.d.d.d.d.d.d.d.d.d.d.d.d.d.d.d.d.d.d.d.d.d.d.d.d.d.d.d.d.d.d.d.d.d.d.d.d.d.d.d.d.d.d.d.",
"d.d.d.d.d.d.d.d.d.d.d.d.d.d.d.d.d.d.d.d.d.d.d.d.d.d.d.d.d.d.d.d.d.d.d.d.d.d.d.d.d.d.d.d.d.d.d.d.d.d.d.d.d.d.d.d.d.d.d.d.d.d."
};
