/* XPM */
static char *result[] = {
/* columns rows colors chars-per-pixel */
"32 32 65 1 ",
"  c #5A4737",
". c #5C4C37",
"X c #57463D",
"o c #5B4A3D",
"O c #5D543D",
"+ c #5F5C3B",
"@ c #615E3D",
"# c #5F613A",
"$ c #4D733E",
"% c #62613E",
"& c #64733F",
"* c #5B4D44",
"= c #5C4F48",
"- c #5C5246",
"; c #5E544B",
": c #5F5949",
"> c #5F5650",
", c #625C44",
"< c #62564B",
"1 c #645B4C",
"2 c #685C4D",
"3 c #645C53",
"4 c #685F53",
"5 c #665F58",
"6 c #646543",
"7 c #656B45",
"8 c #64624A",
"9 c #65694D",
"0 c #6D6D4E",
"q c #677642",
"w c #697743",
"e c #6C7A49",
"r c #676056",
"t c #686156",
"y c #646B53",
"u c #696E54",
"i c #676058",
"p c #6A645B",
"a c #6C685D",
"s c #756F58",
"d c #6A7156",
"f c #6C745B",
"g c #717B53",
"h c #76705A",
"j c #6A6661",
"k c #6E6960",
"l c #706A62",
"z c #786E62",
"x c #7B7564",
"c c #7D7865",
"v c #79776C",
"b c #7A796E",
"n c #7F7B70",
"m c #827F76",
"M c #6A8446",
"N c #6B8448",
"B c #6C8A4B",
"V c #6E924D",
"C c #7D8769",
"Z c #7F8B6C",
"A c #809E4E",
"S c #87B055",
"D c #808A6E",
"F c #828176",
"G c #838178",
/* pixels */
"VVVVVVVVVVVVVVVVVVVVVVVVVVV$VVVV",
"VVVVVVVVVVVVVVVVVVVVVVVVVVVVVVVV",
"VVVVVVVVVVVVVVVVVVVVVVVVVVVVVVVV",
"VVVVVVVVVVVVVVVVVVVVVVSVVVVVVVVV",
"VBNNNNNNNNNNNNNNNNMMNNVAM&M&BBVV",
"B0xxxxxxxsxcxxxxxcxxxhccmmmmm&VV",
"VgZDGGGGmzmnGGnmGGFGmxFFmDDDDeVV",
"VVVBalaaa3jaaaaaapapttpat89VVVVV",
"VVVByjaaa3ppapaaipppt3aa0tdVVVVV",
"VVVB:paii<iipiiipaii5<iit5uVVVVV",
"VVVB:35rt<iiiiit5i453<i55tsVVVVV",
"VVVBooooooo.%%%%@6@ o oo*o,VVVVV",
"VVVB;--=<*@&VVVVVVB&O--;--8VVVVV",
"VVVB:-;;;OMVVVVVVVVV&-<:<;8VVVVV",
"VVVB-*=3<6VVVVVVVVVVB,<3<<6VVVVV",
"VVVB:=-rt7VVVVVVVVVVN,r5;ruVVVVV",
"VVVB;;;pi7VVVVVVVVVVB1rr<iuVVVVV",
"VVVB;=->27VVVVVVVVVVB,31*39VVVVV",
"VVVB:=>>36VVVVV$VVVVB84533uVVVVV",
"VVVB:;>>56VVVV$V$VVVN1i5r5uVVVVV",
"VVVB-==;<6VVVVV$VVVVN63335uVVVVV",
"VVVB**X=<7VVVVVVVVVVN855<tuVVVSV",
"VVVB==*=36VVVVVVVVVVB8ka<jfBSVSV",
"VVVB***==6VVVVVVVVVVN8ii<iuVSVSV",
"VVVB=*X**ONVVVVVVVVVM223129BSVVV",
"VVVB5iir4,NVVVVVVVVVwzbvvvCVVVVV",
"VVVB:<331,NVVVVVVVSVqtskklfVVVVV",
"VVVB#+++%%BVVVVVVSVSN6%%@@7VVVVV",
"VVVVVVVVVVVVVVVVVVSVVVVVVVVVVVVV",
"VVVVVVVVVVVVVVVVVVVVVVVVVVVVVVVV",
"VVVVVVVVVVVVVVVVVVVVVVVVVVV$VVVV",
"VVVVVVVVVVVVVVVVVVVVVVVVVV$V$VVV"
};
