/* XPM */
static char *_642626270357[] = {
/* columns rows colors chars-per-pixel */
"64 64 105 2 ",
"   c #57473F",
".  c #58473E",
"X  c #5B4B3E",
"o  c #5D543B",
"O  c #5F5B3E",
"+  c #605C3E",
"@  c #5F603B",
"#  c #61643E",
"$  c #636B3F",
"%  c #5B4D43",
"&  c #5C4F4A",
"*  c #5D5145",
"=  c #5F5D43",
"-  c #5D534A",
";  c #5F594B",
":  c #605445",
">  c #625D43",
",  c #61564B",
"<  c #635A4D",
"1  c #605750",
"2  c #655D53",
"3  c #685F52",
"4  c #665F58",
"5  c #5F6147",
"6  c #5F6148",
"7  c #537941",
"8  c #597E44",
"9  c #636245",
"0  c #656C43",
"q  c #63644A",
"w  c #69664C",
"e  c #666A4A",
"r  c #6B684E",
"t  c #667244",
"y  c #687347",
"u  c #677A44",
"i  c #697C45",
"p  c #66714A",
"a  c #6A744C",
"s  c #677C4A",
"d  c #6A7E4A",
"f  c #666254",
"g  c #6B6356",
"h  c #666954",
"j  c #696C55",
"k  c #676159",
"l  c #69645B",
"z  c #6C6B5C",
"x  c #726F5A",
"c  c #657552",
"v  c #6A7652",
"b  c #6B7954",
"n  c #6B785A",
"m  c #737555",
"M  c #707A50",
"N  c #75775B",
"B  c #78705E",
"V  c #77795D",
"C  c #797B5D",
"Z  c #696560",
"A  c #6E6B61",
"S  c #726D63",
"D  c #757264",
"F  c #7B7464",
"G  c #757A64",
"H  c #7A7C64",
"J  c #77756B",
"K  c #7A756B",
"L  c #7E796A",
"P  c #7D7A71",
"I  c #817E73",
"U  c #5A8044",
"Y  c #618647",
"T  c #698146",
"R  c #6A8847",
"E  c #628748",
"W  c #6D834C",
"Q  c #668B4A",
"!  c #6C8C4B",
"~  c #72864E",
"^  c #708C49",
"/  c #6E924D",
"(  c #72954D",
")  c #78974C",
"_  c #74994F",
"`  c #7C9D4E",
"'  c #6E8B51",
"]  c #728452",
"[  c #708C53",
"{  c #7B8F52",
"}  c #73835B",
"|  c #7E815F",
" . c #729054",
".. c #779D50",
"X. c #789E50",
"o. c #7DA452",
"O. c #7B8265",
"+. c #7A8B65",
"@. c #7E856B",
"#. c #809553",
"$. c #81A24F",
"%. c #80A652",
"&. c #82AA53",
"*. c #81846E",
"=. c #828272",
/* pixels */
"/ / / / / / / / / / / / / / / / / / / / / / / / / / / / / / / / / / / / / / / / / / / / / / / / / / / / / Q $ 7 Q / / / / / / / ",
"/ / / / / / / / / / / / / / / / / / / / / / / / / / / / / / / / / / / / / / / / / / / / / / / / / / / / / Q U U Q / / / / / / / ",
"/ / / / / / / / / / / / / / / / / / / / / / / / / / / / / / / / / / / / / / / / / / / / / / / / / / / / / / Q Q / / / / / / / / ",
"/ / / / / / / / / / / / / / / / / / / / / / / / / / / / / / / / / / / / / / / / / / / / / / / / / / / / / / ( ( / / / / / / / / ",
"/ / / / / / / / / / / / / / / / / / / / / / / / / / / / / / / / / / / / / / / / / / / / / / / / / / / / / / / / / / / / / / / / ",
"/ / / / / / / / / / / / / / / / / / / / / / / / / / / / / / / / / / / / / / / / / / / ( ( _ / / / / / / / / / / / / / / / / / / ",
"/ / / / / / / / / / / / / / / / / / / / / / ( / / / / / / / / / / / / / / / / / / / ( _ o.o._ / / ( / / / / / / / / / / / / / / ",
"/ / / ! / ! / ! ^ ! / / ! / ! / ! / / ! / ! ^ ^ / ! / ! / ! / ! / ! / ^ / ^ ! / / ! ! ( %.&.` ^ ! / ! ! / ! / ! / / / / / / / / ",
"/ ( ! R R ! R R R R ! ! R R R R T ^ ^ ^ R R ^ R R ! R R R R R R R R R R R R ! R R ! ! ^ #.#.$.) ! R R R R ! R R Q Q ^ ! ( / / / ",
"/ ^ R ~ M ~ b W d ~ M d M ~ ] M ~ M i ~ ~ M i M M d ~ M M ~ b ~ W W ~ M M ~ M ~ W d ~ ~ #.#.#.{ ] ] M W M W b ] W W W ! / / / / ",
"! ! a M N C G V C V V C V V V V r m B m m m C m C C V V C V V V C C V V V V G V N m m N M #.*.H C C C V C C V V N m d W ! / / / ",
"! W a m H L L L L L L L L L L L I I B B F I I I I K L L L K L K K K L K K L L L L L B B B I I K I K L L L L @.L H B m i ! / / / ",
"! ! M N O.@.@.@.I I I I I I I I I I F S L I =.P I I I I P =.I I I I I I I I =.P I F F F I I I I I I I I @.=.=.@.O.O.M d ! / / / ",
"/ ! ~ ] +.+.+.@.P P I I P I I P I K B S K P P P K L L P P P P P P L P P P P P P K F F F K P P P K L P L @.@.@.+.+.| ] R ! ( / / ",
"/ / !  . . .' } N A S J S S S S S S g g A S D S S D S S D S S S S S S S S S S S S l l l S S S S A D S A z n '  . . .' ! / / / / ",
"/ / / / / / ! ' j l Z A A x Z Z Z l 3 3 l l l Z l l l l Z l l l l l z l l l l l l 3 3 g l l l l l l l l k c ! / / / / / / / / / ",
"/ / / / / / ! d h k l A A l Z l x l 3 2 4 l l l l l Z l Z l l l Z l l l l l Z l 4 4 3 3 l l l l l l l l j b ' / / / / / / / / / ",
"/ / / / / / ' W e f k l A l l z l 4 3 3 g l l Z l l l l z l l l l l 4 l l l l 4 4 3 < 2 g l l l l l l z j b ' / / / / / / / / / ",
"/ / / / / / ! W h f k l l l l l l l 2 < g l l l l l l l l k l k l 4 Z l l g 4 l 4 3 1 2 l l l l l k l l j b ' / / / / / / / / / ",
"/ / / / / / ' s e 1 f k l l l l l g < < 4 4 l l l k k k l l k l 4 l 4 4 l 4 l 4 4 3 < 1 4 l 4 l k k k l l b ! / / / / / / / / / ",
"/ / / / / / ! b q ; 2 4 k k k k g 3 < < 3 l 4 4 k k k k k k k k l 4 4 4 3 4 l g 3 2 , , 4 4 4 4 k k l l j v ' / / / / / / / / / ",
"/ / / / / / ! T 6 - ; 1 1 < 2 2 2 < : , 1 < 2 3 < 3 f 3 2 f 2 4 4 3 3 3 3 3 2 1 1 , : : 1 < 3 2 2 f 1 3 f a W / / / / / / / / / ",
"/ / / / / / ! s = o % * * * * * % % o X X X % + > 9 9 9 9 = > > > > > > > + o X X : % X : % : % * % % : > e ! / / / / / / / / / ",
"/ / / / / / ! s = X X X % % X % X % X X X X X + # 0 0 0 0 0 0 0 0 t 0 0 $ + + X X X X X X X X % X X X o = e R / / / / / / / / / ",
"/ / / / / / Q s 6 * * % * * % % % % % % o O $ $ R ! R R ! R R R ~ R ! R T i $ # o o % * * * % % * % % * = p W / / / / / / / / / ",
"/ / / / / / ' W 6 - * * * * - * : : % : @ $ u R / / / / / / / / / ( / / / ! T $ # + * - * * - - - - - ; 6 p W / / / / / / / / / ",
"/ / / / / / ! s 6 - & & - - - - , : : + t u ! / / / / / / / / / / / / / / / / T $ $ = : - - - ; - - ; ; 6 c ! / / / / / / / / / ",
"/ / / / / / ! W 6 - * * - - ; ; , : : + u ! / / / / / / / / / / / / / / / / / ! T $ : : , < ; ; ; ; ; 1 6 p W / / / / / / / / / ",
"/ / / / / / ! s 6 = % % % - ; 1 , , > 0 R / / / / / / / / / / / / / / / / / / / R i 9 : , < 1 < , , , , q p W / / / / / / / / / ",
"/ / / / / / ! s 5 % % % * - 1 2 < < 9 y R ( / / / / / / / / / / / / / / / / / ^ ! T 0 : < 1 3 < , , , < q p ! / / / / / / / / / ",
"/ / / / / ! ! s 6 * * * & - 2 4 g 3 q y R / / / / / / / / / / / / / / / / / / / ! T 0 , 3 4 4 1 , , 1 g f a ! / / / / / / / / / ",
"/ / / / / / ' W 6 ; - * & - f k l f q y W ( / / / / / / / / / / / / / / / / / / ! d q < 3 4 4 4 , , 3 f h c ' / / / / / / / / / ",
"/ / / / / / ' W 6 6 - * - 1 4 k l f w y ! / / / / / / / / / / / / / / / / / / / ! T 9 < f k 4 2 ; 1 4 f j v ' / / / / / / / / / ",
"/ / / / / / ! s 6 * & & & ; 1 k 4 f q p ! / / / / / / / / / / / / / / / / / / ! ! d e < 2 f f 3 1 , 1 f h c ! / / / / / / / / / ",
"/ / / / / / ! d 6 - & * & - 1 4 1 f 9 t W / / / / / / / / / / ( / / / / / / / / ( i 0 < 2 2 2 1 , * 1 3 f a ' / / / / / / / / / ",
"/ / / / / / ! s 6 & & & & - 1 4 < < q t ! / / / / / / / / / Q Q / / / / / / / / ! d e > 2 1 2 1 , * < 2 f a ! / / / / / / / / / ",
"/ / / / / / Q c 6 - & & & 1 1 1 3 < 9 y R / / / / / / / / Q U U Q ( ( / / / / / ! T e < 3 4 4 4 < < 2 f f c W / / / / / / / / / ",
"/ / / / / / ' E 6 ; - - & 1 1 4 4 < 9 y ! / / / / / / / ! U U U U Q ! / / / / ! ! T e < 2 f 4 4 4 4 2 f h v ' / / / / / / / / / ",
"/ / / / / / ' E 6 ; - - ; 1 1 4 2 2 > e ! / / / / / / Q U 8 E Q U U Q ( / / / / ! s e < 4 f f 2 4 2 4 k h v ! / / / / / / / / / ",
"/ / / / / ' Q Y 6 - & - ; 1 1 1 2 3 9 t ! / / / / / / ! U U E U U U Q / / / / / ! T e < 2 2 4 4 4 2 2 4 h v ' / / / / / / / / / ",
"/ / / / / / ! s 6 & & & & & - 1 2 1 > y R / / / / / / ! Q E U 8 U Q / / / / / / ! T 0 , 1 4 4 4 2 2 2 3 h c ' / / / / / / / / / ",
"/ / / / / / ' s 6 % % % % & & & 1 < 9 y R / / / / / / ( / ! U U / ( / / / / / / ! R 0 > < 4 3 1 1 1 2 f f c ! / / / / / _ _ / / ",
"/ / / / / / ! s 6 % % % % % % & < < q y ! / / / / / / / / / Q ! / ( / / / / / ! ! d e < 3 4 4 3 2 < 4 g j v ' / / / / _ o.o._ / ",
"/ / / / / / ' s 6 % % %     % & ; < 9 y ! / / / / ! ( / / / / / / / / / / / / / ! T e q 4 l 4 4 3 1 k l j b ! (  ._ / _ &.&._ / ",
"/ / / / / / ! s 6 & & % % % & 1 1 2 q y W / / / / / / / / / / / / / / / / / / ! ! W e w l l Z 4 1 3 l l z b ' ( o.o.( _ &.&._ / ",
"/ / / / / / ! s 5 * % % % % & - 1 < > y ! / / / / / / / / / / / / / / / / / / / ! T r 3 l Z Z 4 4 1 l l z n ' _ o.o..._ o.&._ / ",
"/ / / / / / / s ; & %   % % % & - - > 0 ! / / / / / / / / / / / / / / / / / / / ! W e < 4 4 l 3 < 1 4 k j b ! ..&.&._ ..&.o.../ ",
"/ / / / / / Q s - % %       % % - * = 0 T / / / / / / / / / / / / / / / / / / / R i e < 3 4 4 1 < , 4 h h c ' ..&.&._ _ o.o._ / ",
"/ / / / / / Q s 5 X % X . . % X % : o # T ^ / / / / / / / / / / / / / / / / / / ^ y w 3 < 3 3 2 < < 3 3 r a W ..&.&.../ / _ / / ",
"/ / / / / / ' s 9 * % : * * % % * : X 9 i ! / / / / / / / / / / / / / / / / / ! T y r 3 3 g 4 g 4 3 g g j a ' _ o.o.( / / / / / ",
"/ / / / / / ' W h < 3 1 2 2 3 2 1 < : 9 i R ( / / / / / / / / / / / / / / / / ! i a x S F F D D S S F B G } [ / ( ../ / / / / / ",
"/ / / / / / ' W h f f 4 4 4 4 4 l 3 < 9 i ! ! / / / / / / / / / / / / ( _ ( / ! i y x S K K J K K J J F G } [ / / / / / / / / / ",
"/ / / / / / ' W r 1 2 1 3 3 2 2 3 1 , 9 u R / / / / / / / / / / / / / ( o.o._ ! i y x B S D S D S S D S B V [ / / / / / / / / / ",
"/ / / / / ' ! s e : < , , < < < < , : # u ! ! / / / / / / / / / / / ( ` o.%.X.( T y r 3 g l l g g g g l v b ! / / / / / / / / / ",
"/ / / / / / ! d 0 O + + + + : : > + # $ T ! / / / / / / / / / / / _ o.o._ X.$.$.^ i 9 9 9 9 9 9 < > 9 > e s W / / / / / / / / / ",
"/ / / / / / / R $ $ $ $ 0 $ $ $ $ $ $ u R / / / / / / / / / / / / ..o.o.` _ %.$.) T y $ 0 0 0 0 t $ 0 t t T ! / / / / / / / / / ",
"/ / / / / / / / ! R Q R R R T R ! R R ! ! / / / / / / / / / / / / / ( ..o.o.o.( ( ! ! ! R R R W R R R ! ! ! / / / / / / / / / / ",
"/ / / / / / / / / / / / / / / / / / / / / / / / / / / / / / / / / / / ( o.o.( / / / / / / / / / / / / / / / / / / / / / / / / / ",
"/ / / / / / / / / / ( / / / / / / / / / / / / / / / / / / / / / / / / /  .../ / / / / / / / / / / / / / / / / / / / / / / / / / ",
"/ / / / / / / / / / / / / / / / / / / / / / / / / / / / / / / / / / / / / / / / / / / / / / / / / / / / / / Q ! / / / / / / / / ",
"/ / / / / / / / / / / / / / / / / / / / / / / / / / / / / / / / / / / / / / / / / / / / / / / / / / / / / Q U 8 Q / / / / / / / ",
"/ / / / / / / / / / / / / / / / / / / / / / / / / / / / / / / / / / / / / / / / / / / / / / / / / / / / ! Y 8 8 E Q / / / / / / ",
"/ / / / / / / / / / / / / / / / / / / / / / / / / / / / / / / / / / / / / / / / / / / / / / / / / / / ! U 8 Y E U U ! / / / / / ",
"/ / / / / / / / / / / / / / / / / / / / / / / / / / / / / / / / / / / / / / / / / / / / / / / / / / / E 7 7 Q Q 7 7 Q / / / / / "
};
