/* XPM */
static char *_642626313949[] = {
/* columns rows colors chars-per-pixel */
"64 64 128 2 ",
"   c #1A0D00",
".  c #161602",
"X  c #1A1703",
"o  c #171802",
"O  c #1A1A04",
"+  c #0F0F12",
"@  c #111115",
"#  c #17171B",
"$  c #191A1D",
"%  c #231200",
"&  c #291200",
"*  c #1F2012",
"=  c #2C2E06",
"-  c #2D2E09",
";  c #2E3009",
":  c #32340D",
">  c #222214",
",  c #2C2C1E",
"<  c #1E1D22",
"1  c #201F24",
"2  c #222026",
"3  c #2D2D21",
"4  c #252429",
"5  c #323125",
"6  c #373636",
"7  c #393837",
"8  c #343339",
"9  c #39393B",
"0  c #592900",
"q  c #573503",
"w  c #583603",
"e  c #6A3E03",
"r  c #783800",
"t  c #564D0E",
"y  c #5C4F0E",
"u  c #444613",
"i  c #474817",
"p  c #484A17",
"a  c #484A18",
"s  c #545612",
"d  c #565913",
"f  c #5C5E14",
"g  c #7E4B05",
"h  c #62530E",
"j  c #5E6115",
"k  c #606217",
"l  c #6C6F19",
"z  c #7A6C15",
"x  c #7E681D",
"c  c #6D7019",
"v  c #7E7016",
"b  c #72751B",
"n  c #78751A",
"m  c #76791C",
"M  c #767428",
"N  c #7A7629",
"B  c #3E3B42",
"V  c #413F44",
"C  c #444349",
"Z  c #4E4C52",
"A  c #575455",
"S  c #595657",
"D  c #545159",
"F  c #5A575C",
"G  c #5D5B5B",
"H  c #5D5B61",
"J  c #615E65",
"K  c #636167",
"L  c #656269",
"P  c #6B676F",
"I  c #6C6870",
"U  c #726D75",
"Y  c #747077",
"T  c #76727A",
"R  c #7A757D",
"E  c #843F00",
"W  c #884100",
"Q  c #964B00",
"!  c #9F4D00",
"~  c #845107",
"^  c #8D5507",
"/  c #8F5308",
"(  c #875C0B",
")  c #895F0C",
"_  c #905104",
"`  c #935805",
"'  c #9B5C06",
"]  c #91520F",
"[  c #975512",
"{  c #A04E00",
"}  c #A35000",
"|  c #AF5600",
" . c #A45F06",
".. c #AB5F04",
"X. c #A95F0F",
"o. c #B05700",
"O. c #B35C00",
"+. c #A35B12",
"@. c #82620F",
"#. c #99660B",
"$. c #906A0F",
"%. c #9C690C",
"&. c #826F14",
"*. c #866C1D",
"=. c #817317",
"-. c #A56207",
";. c #AA6004",
":. c #A86008",
">. c #83642F",
",. c #8C682F",
"<. c #8A6439",
"1. c #807042",
"2. c #897646",
"3. c #8D7948",
"4. c #866E51",
"5. c #917756",
"6. c #967A58",
"7. c #7F7A82",
"8. c #827D85",
"9. c #868289",
"0. c #8B868E",
"q. c #8E8991",
"w. c #918B93",
"e. c #949097",
"r. c #969299",
"t. c #99939B",
"y. c #9F9AA1",
"u. c #A29DA4",
/* pixels */
"b b b b b b b b b b b b b b b b b m b b b b b b b b b b b b b b b b b b b b b b b b b b b b b b b b m m b b b b b b b b b b b b ",
"b b b b b b b b b b b b b b b l f f l b b b b b b b b b b b b b b b b b b b b b b b b b b b b b b c f f c b b b b b b b b b b b ",
"b b b b b b b b b b b b b b b k - - j m m b b b b b b b b b b b b b b b b b b b b b b b b b b m m f = = j m m b b b b b b b b b ",
"b b b b b b b b b b b b m c f i 3 , p f b b b b b b b b b b b b b b b b b b b b b b b b b b b c k a 3 3 i j c b b b b b b b b b ",
"b b b b b b b b b b b b m j = , F S 3 = j m b b b b b b b b b b b b b b b b b b b b b b b m m d = 3 G G 3 = j m b b b b b b b b ",
"b b b b b b b b b b m l j u , V 7.R 8 > u j c m b b b b b b b b b b b b b b b b b b b b b c k u > 8 7.9.C , u j c m b b b b b b ",
"b b b b b b b b b b n j = , A R w.8.F 6 > = j m b b b b b b b b b b b b b b b b b b b m m j - > 6 F 0.t.7.F , ; j m b b b b b b ",
"b b b b b b b b b c j u , B R r.q.8.I Z 4 > u j c b n b b b b b b b b b b b b b b m b c j u > 4 Z I 9.t.y.8.B , p k c b b b b b ",
"b b b b b b b b m f ; , S R q.w.8.U I J Z 6 > ; j m m b b b b b b b c b b b b b b m m j : > 6 Z J I U 8.e.e.8.G 3 ; f b b b b b ",
"b b b b b b b b m s . 1 U r.w.8.U P I P L Z 4 > i d d j c m m m &.&.&.n m b m c j d d u > 4 Z L I I I U 9.e.u.T < . d m m b b b ",
"b b b b b b b m m s . $ U w.8.U I P P I I J Z 7 > o o ; j m m =.%. .` ) v m m j ; o O > 7 Z J P I I P U Y 9.r.Y 1 . s m m b b b ",
"b b b b b b b l k p , V R 0.T P P I I I I P L Z 4 @ @ > i d d h g E r e y d d i > @ @ 4 Z L P I I I I I P T w.8.C , i j l b b b ",
"b b b b b b b f > 4 H 5.0.0.T P P I P I I I I H Z C C 7 > o o O & & %   X X o > 7 C C Z H P P I I I I P P T w.e.8.G 3 = f b b b ",
"b b b b b m m s o # 7.t.r.0.T P P I I I I I I P K K K Z 4 + @ @ # $ $ @ @ @ @ 4 Z L K L P I I I P I I P I T w.y.u.Y 4 . s m b b ",
"b b b b b b m s o 1 U t.r.0.T P P I I I I I I I P P I H C B 9 B Z D D Z C 9 9 C H P P P I I P I I P I P P T w.y.u.Y 4 . s m m b ",
"b b b b b m b s o 1 U t.r.0.T P P I I I P I I P P P I J C 9 9 C Z D D Z V 9 9 C J I P P I I I I I I I P P T w.y.u.T 2 . s m b b ",
"b b b b b b m s o 1 I t.t.q.Y I I I P I I I I P L K K Z 4 @ + @ # $ $ # @ + + 4 Z L J L P I I I I P I P P T w.t.u.R 4 . s b m b ",
"b b b b b b b f ; 3 S R q.q.Y P P I I I I I I H Z C C 7 > O O O       . O O O > 7 C C Z J P I I I I I P P T w.e.9.G 3 ; f b b b ",
"b b b b b b b b j p 3 B T 0.T P P I I I I I L Z 4 @ @ > u d d y q 0 0 w t d d i > @ @ 4 Z L P I I I I P P T w.8.C 3 a j c b b b ",
"b b b b b b b b m s . < I e.8.Y I P I I I J Z 7 > o o ; k m m z ~ W W g z m m j : . O > 7 Z J I I I I I Y 9.t.T * o d m b b b b ",
"b b b b b b b b m s . < 7.r.w.7.U I I P L Z 4 > u d d j l m b =.' } Q ^ z m m c f d d u > 4 Z L P I P Y 9.t.t.R 4 O d m m b b b ",
"b b b b b b b b b j = 3 Z 7.w.q.7.U I J Z 6 > ; j m m m b b b &.:.o.! ^ z b b b b m m k ; * 6 Z J I Y 8.e.t.8.G 5 : j m b b b b ",
"b b b b b b b b b c j i 1 B 7.r.w.8.I Z 4 > u j c b b b b b b =.:.o.{ ^ z b b b b b b b j u * 4 Z U 9.t.t.8.V , a k c b b b b b ",
"b b b b b b b b b b m j = 2 H 5.w.8.F 6 * ; j m m b b b b b c =.-.| ! ^ z b b b b b b b m k - * 6 F 9.t.9.F , = j m b b b b b b ",
"b b b b b b b b b b b c j u , 9 7.R 8 > u j c b b b b b b b b =.-.| ! ^ z b b b b b b b n c j u > 8 8.8.V , i j c m b b b b b b ",
"b b b b b b b b b b b b m f = , F F 3 = j n b b b b b b b b b v -.| ! ^ z b b b b b b b b b m f - 3 G G 3 = f m b b b b b b b b ",
"b b b b b b b b b b b b m c f a 5 5 a j b b b b b b b b b b b &.-.| ! ^ n b b b b b b b b b m b j a 3 3 a f b b b b b b b b b b ",
"b b b b b b b b b b b b b b N k : : k m b b b b b b b b b b c &.-.| ! ^ z b b b b b b b b b b b m f - - f m b b b b b b b b b b ",
"b b b b b b b b b b b b b b b l f f b b b b b b b b b b b b b =.-.| ! ^ z b b b b b b b b b b b b c f f l b b b b b b b b b b b ",
"b b b b b b b b b b b b b b b n b b b b b b b b b b b b b b b &.-.| ! ^ z c b b b b b b b b b b b b b b b b b b b b b b b b b b ",
"b b b b b b b b b b b b b b b b b b b b b b b b b b b b b b b =.-.| ! ^ n b b b b b b b b b b b b b b m b b b b b b b b b b b b ",
"b b b b b b b b b b b b b b b b b b b b b b b b b b b b b b c =.-.| ! ~ z b b b b b b b b b b b b b b b b b b b b b b b b b b b ",
"b b b b b b b b b b b b b b b b b b b b b b b b b b b b b b b =.-.| ! ^ z b b b b b b b b b b b b b b b b b b b b b b b b b b b ",
"b b b b b b b b b b b b b b b b b b b b b b b b b b b b b b v $.;.| ! ^ z z b b c b b b b b b b b b b b b b b b b b b b b b b b ",
"b b b b b b b b b b b b b b b b b b b b b b b b b b b c b v #.;.O.| ! Q ^ ( z b b b b b b b b b b b b b b b b b b b b b b b b b ",
"b b b b b b b b b b b b b b b b b b b b b b b b b b b b b v #.-.X.+.[ ] / ( v c b b b b b b b b b b b b b b b b b b b b b b b b ",
"b b b b b b b b b b b b b b b b b b b b b b b b b b b b b n v *.,.<.<.N x z b b b b b b b b b b b b b b b b b b b b b b b b b b ",
"b b b b b b b b b b b b b b b b b b b b b b b b b b b b b b b b N 4.4.<.M b b b b b b b b b b b b b b b b b b b b b b b b b b b ",
"b b b b b b b b b b b b b b b b b b b b b b b b b b b b b b b N 5.5.5.2.M b b b b b b b b b b b b b b b b b b b b b b b b b b b ",
"b b b b b c b b b b b b b b b b b b b b b b b b b b b b b b c N 5.6.6.3.N b b b b b b b b b b b b b b b b b b b b b b b b b b b ",
"b b b b b b b b b b c b b b b b b b b b b b b b b b b b b c b N 2.6.6.3.N b b b b b b b b b b b b b b b b b b b b b c b b b b b ",
"b b b b b b b b b b b b b b b b b b b b b b b b b b b b b b b N 3.6.6.3.N b b b b b b b b b b b b b b b b b b b b b b b b b b b ",
"b b b b b b b b b b b b b b b b b b b b b b b b b b b b b b b N 2.6.6.3.N b b b b b b b b b b b b b b b b b b b b b b b b b b b ",
"b b b b c b b b b b b b b b b b b b b b b b b b b b b b b b b m 3.6.6.3.N b b b b c b b b b b b b b b b b b b b b b b b b b b b ",
"b b b b b b b b b b b b b b b b b b b b b b b b b b b b b c b N 3.6.6.3.N b c b b b b b b b b b b b b b b b b b b b b b b b b b ",
"b b b b b b b b b b b b b b b b c b b b b b b b b b b b b b b N 3.6.6.3.N b b b b b b b b b b b c b b b b b b b b b b b b b b b ",
"b b b b b b b b b b b b b b b b b b b b b b b b b b b b b b b N 3.6.6.3.N b b b b b b b b b b b b b b b b b b b b b b b b b b b ",
"b b b b b b b b b b b b b b b b b b b b b b b b b b b b b b b N 3.6.6.3.N c b b b b b b b b b b b b b b b b b b c b b b b b b b ",
"b b b b b b b b b b b b b b b b b b b b b b b b b b b b b b c N 3.6.6.3.M b b b b b b b b b b b b b b b b b b b b b b b b b b b ",
"b b b b b b b b b b b b b b b b b b b c b b b b b b b b b b b N 3.6.6.3.N b c b b b b b b b b b b b b b b b b b b b b b b b b b ",
"b b b b b b b b b b b b b b b b b b b b b b b b b b b b b c b N 3.6.6.3.N b b b b b b b b b b b b b b b b b b b b b b b b b b b ",
"b b b b b b b b b b b b b b b b b b b b b b b b b b b b b b b N 3.6.6.3.M b b b b b b b b b b b b b b b b b b b b b b b b b b b ",
"b c b b b b b b b b b b b b b b b b b b b b b b b b b b c b b N 3.6.6.3.N b b b b b b b b b b b b b b b b b b b b b M c b b b b ",
"M x b b b b b b b b b b b b b b b b b b b b b b b b b b b b b N 3.6.6.3.N b b b b b b b b b b b b b b b b b b b b b b n b b b b ",
"b b b b b b b b b b b b b b b b b b b b b b b b b b b b b b b N <.6.6.3.N b c b b b b c b b b b b b b b b b b b b b c n b b b b ",
"b b b b b b b b b b b b b b b b b b b b b b b b b b b b b b b N 3.6.6.3.N b b M b b b x b b c b b b b b b b b b b b b b b b b b ",
"c b b b b b b b b b b b b b b b b b b b b b b b b b b b b b b N 3.6.6.5.M b b b b b b b b b b b b b b b b b b b b b b b b b c b ",
"b b b b b b b b b b b b b b b b b b b b b b b c b b b b b b b M 3.6.5.5.N c b b b b b b b b b b b b b b b b b b b b b b b b b b ",
"b b b b b b b b b b b b b b b b b b b b b b b b b b b b b b b M N 5.4.N M b b b b b b b b b b b b b b b b b b b b b b b b b b b ",
"b b b b b b b b c b b b b b b b b b b b b b b b b b b b b b =.*.<.<.<.N x z b b b b b b b b b b b b b b b b b b b b b b b b b b ",
"b b b b b b b b b b b b b b b b b b b b b b b b b b b b b v #. .X.+.[ ] / ( z c b b b b b b b b b b b b b b b b b b b b b b b b ",
"b b b b b b b b b c b b b b b b b b b b b b b b b b b b b &.#.-. . .` ^ ^ ( n b b b b b b b b b b b b b b b b b b b b b b b b b ",
"b b b b b b b b b b b b b b b b b b b b b b b b b b b b b b v &.&.&.z z z z b b b b b b b b b b b b b b c b b b b b b b b b b b ",
"b b b b b b b b b b b b b b b b b b b b b b b b b b b b b b b b c b b b b b b b b b b b b b b b b b b b b b b b b b b b b b b b "
};
