/* XPM */
static char *result[] = {
/* columns rows colors chars-per-pixel */
"32 32 15 1 ",
"  c #72751B",
". c black",
"X c #948E96",
"o c #9B969D",
"O c #5C5A60",
"+ c #9A969D",
"@ c #6C6870",
"# c #B45B00",
"$ c #964B00",
"% c #938E96",
"& c #4C4C50",
"* c #783B00",
"= c gray3",
"- c #816A4A",
"; c #957A56",
/* pixels */
"                                ",
"        .                .      ",
"       .X.              .o.     ",
"      .XXO.            .O+o.    ",
"     .XX@@O.          .O@@o+.   ",
"     .X@@@@O..  #$  ..O@@@@o.   ",
"    .X%@@@@@OO......OO@@@@@oo.  ",
"    .XX@@@@@@@&&@@&&@@@@@@@oo.  ",
"    .XX@@@@@OO......OO@@@@@oo.  ",
"     .X@@@@O..  **  ..O@@@@o.   ",
"     .%X@@O.    #$    .O@@oo=   ",
"      .XXO.     #$     .Ooo.    ",
"       .X.      #$      .o.     ",
"        =       #$       .      ",
"                #$              ",
"                #$              ",
"                #$              ",
"               ##$$             ",
"                --              ",
"                ;;              ",
"                ;;              ",
"                ;;              ",
"                ;;              ",
"                ;;              ",
"                ;;              ",
"                ;;              ",
"                ;;              ",
"                ;;              ",
"                ;;              ",
"                --              ",
"               ##$$             ",
"                                "
};
