/* XPM */
static char *result[] = {
/* columns rows colors chars-per-pixel */
"32 32 130 2 ",
"   c #434F65",
".  c #3F4B60",
"X  c #384255",
"o  c #343D4F",
"O  c #3F4B5F",
"+  c #444F64",
"@  c #444E64",
"#  c #444F65",
"$  c #434F64",
"%  c #4A576E",
"&  c #586580",
"*  c #606E8A",
"=  c #58657F",
"-  c #5F6E8A",
";  c #5F6D8A",
":  c #4F5C75",
">  c #647391",
",  c #6F7FA0",
"<  c #6D7D9D",
"1  c #6B7A9B",
"2  c #6A7A9B",
"3  c #6A7A9A",
"4  c #647390",
"5  c #4F5C74",
"6  c #6C7C9C",
"7  c #6F7F9F",
"8  c #7081A1",
"9  c #667595",
"0  c #617090",
"q  c #60708F",
"w  c #657594",
"e  c #6D7C9D",
"r  c #7181A1",
"t  c #3E495E",
"y  c #475369",
"u  c #56637D",
"i  c #5B6985",
"p  c #54617D",
"a  c #4F5C78",
"s  c #515E7A",
"d  c #53617D",
"f  c #5B6885",
"g  c #5F6D89",
"h  c #3B4559",
"j  c #414B60",
"k  c #424D63",
"l  c #3F4A5F",
"z  c #3E485D",
"x  c #414C62",
"c  c #46526A",
"v  c #5F6E89",
"b  c #57657F",
"n  c #4A566E",
"m  c #6A7A99",
"M  c #6E7F9F",
"N  c #647290",
"B  c #657595",
"V  c #6C7C9D",
"C  c #5A6988",
"Z  c #5A6989",
"A  c #5A6A89",
"S  c #5F6F8E",
"D  c #667696",
"F  c #606E8B",
"G  c #4D5A73",
"H  c #4B5870",
"J  c #5B6984",
"K  c #61708F",
"L  c #5E6D8C",
"P  c #5F6E8B",
"I  c #5C6B8A",
"U  c #5E6E8D",
"Y  c #586783",
"T  c #4B5770",
"R  c #465269",
"E  c #515F7A",
"W  c #576683",
"Q  c #586683",
"!  c #54627F",
"~  c #505D78",
"^  c #4F5D78",
"/  c #4B5871",
"(  c #434E65",
")  c #3E495D",
"_  c #434E64",
"`  c #505D79",
"'  c #4A5771",
"]  c #49566F",
"[  c #3E485E",
"{  c #3C475B",
"}  c #3A4457",
"|  c #384154",
" . c #394357",
".. c #424E64",
"X. c #576580",
"o. c #606E89",
"O. c #4E5B74",
"+. c #6E7E9F",
"@. c #6B7B9B",
"#. c #6E7E9E",
"$. c #7080A0",
"%. c #657494",
"&. c #7080A1",
"*. c #606F8C",
"=. c #596786",
"-. c #556481",
";. c #566481",
":. c #5F6E8E",
">. c #4A5770",
",. c #5F6E8D",
"<. c #5C6B8B",
"1. c #4D5A74",
"2. c #4D5A75",
"3. c #606F8E",
"4. c #4B5771",
"5. c #445067",
"6. c #4E5B76",
"7. c #3A4357",
"8. c #455068",
"9. c #46536A",
"0. c #414D63",
"q. c #4A566D",
"w. c #667695",
"e. c #4B576F",
"r. c #4F5C77",
"t. c #47546B",
"y. c #49566E",
"u. c #49556E",
"i. c #47536B",
"p. c white",
/* pixels */
"  . X o o o o o o o o o o o o X O O X o o o o o o o o o o o o o ",
"    + @ + # # # # # # # # + @ +     + @ + # # # # # # # # + @ @ ",
"$ % & * * * * * * * * * * * * = % % = * * * * * * * * * * - ; ; ",
"  : > , < 1 2 2 3 3 2 2 1 < , 4 5 5 4 , < 1 2 2 3 3 2 2 2 6 7 8 ",
"$ 5 > < 9 0 q 0 0 0 0 q 0 9 < 4 : : 4 < 9 0 q 0 0 0 0 q 0 w e r ",
"t y u i p a a s d d s a a p i u y y u i p a a s d d s a a d f g ",
"X h j k l z z x c c x z z l k j h h j k l z z x c c x z z l k @ ",
"# # + + + # + +     + + # + + # # # # + + # + +     + + # + # # ",
"* * g g v * ; b n n b ; * v g g * * g g v * ; b n n b ; * v g g ",
"m m m m m 6 M N 5 5 4 7 6 m m m m m m m m 6 M N 5 5 N M 6 m m m ",
"q q q q q B 6 N : : 4 V B q q q q q q q q B 6 N : : N 6 B q q q ",
"C C Z Z A S D F G H J K L Z Z Z C C Z Z A S D P G G P D S A C Z ",
"C C C C C I U Y T R H E W C C C C C C C C I U Q T T Q U I C C C ",
"! d s ~ ^ ~ ^ / ( ) ) _ / ^ ` s d d s ~ ^ ~ ^ ' ( ( ' ^ ~ ^ ~ ~ ",
"] c x t t t [ { } X |  .{ [ t x c c x t t t [ { } } { [ t t t t ",
"    + + # # # # # # # # # # + +     + + # # # # # # # # # + + + ",
"..n X.; * o.* * * * * * * * ; b n n b ; * o.o.* * * * o.v v ; ; ",
"..O.4 +.6 3 3 3 3 m m m m 6 M N 5 5 N M 6 m m m m m m m m @.#.$.",
"..5 4 6 B q q K K q q q q B 6 N : : N 6 B q q q q q q q q %.6 &.",
"  G *.D S =.-.;.=.C Z C A S D P G G P D S A Z Z C C Z Z Z :.D 3 ",
"  >.Q ,.<.-.1.2.-.C C C C I U Q T T Q U I C C C C C C C C I U 3.",
"t ( 4.` ` 4...5.6.d E ~ ^ ~ ^ ' ( ( ' ^ ~ ^ ~ s d d s ~ ^ ^ ^ ^ ",
"X } { t t { 7.{ 8.9.0.t t t [ { } } { [ t t t x c c x t [ [ [ [ ",
"# # # # # # + #     $ + # # # # # # # # # # + +     + + # # # # ",
"* * * o.o.* * & n q.b ; * o.o.* * * * o.o.* ; b n n b ; * o.o.o.",
"m m m m m 6 +.N 5 5 N M 6 m m m m m m m m 6 M N 5 5 N M 6 m m m ",
"q q q q q B 6 N : : N 6 B q q q q q q q q B 6 N : : N 6 B q q q ",
"C C C C C :.w.P G G P w.:.C C C C C C C C :.w.P G G P w.:.C C C ",
"C C C C C I U Q e.e.Q U I C C C C C C C C I U Q e.e.Q U I C C C ",
"! ! ! ! ! ! ! r.t.t.r.! ! ! ! ! ! ! ! ! ! ! ! r.t.t.r.! ! ! ! ! ",
"y.y.y.y.y.y.u.i.5.5.i.u.y.y.y.y.y.y.y.y.y.y.u.i.5.5.i.u.y.y.y.y.",
"            $         $                     $         $         "
};
