/* XPM */
static char *_642626319736[] = {
/* columns rows colors chars-per-pixel */
"64 64 32 1 ",
"  c #343C4E",
". c #343E50",
"X c #374154",
"o c #394356",
"O c #3C465A",
"+ c #3F495E",
"@ c #3F4A60",
"# c #404A5F",
"$ c #424D63",
"% c #445067",
"& c #46526A",
"* c #4A566D",
"= c #4B586F",
"- c #4A5771",
"; c #4D5A73",
": c #4F5D78",
"> c #505D76",
", c #515F7A",
"< c #54617D",
"1 c #58657F",
"2 c #566481",
"3 c #596682",
"4 c #5B6986",
"5 c #5C6B8A",
"6 c #606F8E",
"7 c #63728F",
"8 c #647493",
"9 c #687796",
"0 c #687897",
"q c #6A7A9A",
"w c #6F7FA0",
"e c #7181A1",
/* pixels */
"$$$+oXX   X        ..... .    X #####X        . .               ",
"%$@+#oXXXXXoXXXX.....O..o..oXX#######XXX. .O.....#..XXXXXXXXXXXX",
"%%%$####O#####O####$$$####$#######%########$$$###$$#############",
"$%%%&**=***********--***********%%%&&**&***-;*******=****=****=&",
"%%%=<<1113331111433333226,1611<>***=>111233333322633313333311313",
"%%*>147787777779668778687777761<>===1179777777777677887677787777",
"$%=<47q0qq0q00e9w8999qq99qqqq976>==1179eqq9q9qq99999999q000qqqwq",
"$%=<59eeeqq0000088wq99999qqwww961>=179qewqq9qqq9999q9qqqqqqqeeee",
"#&*169qqq9888888778688888890wq96<>=170ee9978778888867789899qqwwe",
"#%*>6899765555556666665466689971>==>1799776566556666666655689qqq",
"#&&;,17642<<2222222222,2,,14666<=**=117143<<,22,22222,,,<<336688",
"###*;,,,:;;;----::::-----;=><>>>*$$*=>1<>;-*--;>;;,:;-;*--;>><33",
"X#X#$&&&$$$$@$%%*-**&$$$$$$%&&&$####$%**%$$$$$%&---&&%$#$$$&&&&*",
"#X####$#$###++$$$&%%$###$##$#$###oo##$$#$$##O##$%%%%%#######$$$$",
"####$$$$$$$$#$$$$&$$$$$$$$$$$$$$##$$$$##$$$$$$$$%%%$###$$#$$$$$$",
"***&**&********%&$&&&&&****&***=******=*&****&&&%%%%************",
"1116111132333<<>*&&=><112222232<1333222211313<,>--&->>1111111111",
"7777777776777751>=*=1477858677777777668677888643;--;,67777778777",
"q990007900qqq084<==<170e8w8w00000000q000999qq974,;;,679qqq999q99",
"900000000qqqeq95<=<<790ew8w800000000000000qqww96,;>,69qwwq999999",
"88889778880qqq76<;=<79eew888888888888888979qwq86,>>,69qwq0888887",
"655566755688q095<;=<179988665555565565566688qq65,>>,679q88656666",
"5555555555580974<==<1777555555555555555555589865,;;,177985555555",
"2544444555578864<==;<145555555552555254455588862,;*,667765544453",
"5525552525555552;=&=><<<445555455455455555556622;--:<56565555552",
"255242252524552<=&%%&&=><<2233224224222234344422;**;,25555222252",
"2222<2,<2:22<,,-&%$#$%%&;:,<,22<22222222,,2,22;;&%%&;:,<22:22222",
"::2:;;;;------*%%#OOOO#$&&-;;-->:::-----------&%$$$$%&---------@",
"--:-@@%@@@$$$$@+OOoooooO@@$$$$$&&&-&@&@@$$$$$$$+OOO+#$$$@%$%@@@@",
"-@-@&@++@@++@@+OOOOoooOOO++++@#$&&&%@@@@####++OOOOOOOO++++++@@@@",
"@-@@@@@%@@$$$$$$$###$###@$$$$$$$%&%$%$&@$$$$$$$$$$$#$$$$$$$$$$@%",
"@@----;=;-;*****=*======;&*-**&&&@%&&&-;***-*&*********==&***&--",
"@=@=><1<141142221<<<<:2241<111<;-&&=<<11224223333133423311131311",
"@@=;156577767786e4e4ee6577747741:;=;<477866688777777667777777778",
"@==>478eee78e8006e6e6ee8e76eee54:;=<479q8qq890000000008q000q00qe",
"=@=,4e8ee8e8e88ee6e6e68e7ee7eee4<;;<79qewqqq0000000000qq00qqeeee",
"@@><6e8e8e6688885e5688886e6eee64<;=<69qqw888888888888888888qqeee",
"@==<58e8766555554555555556668e65<;;<19q0886556555555655556880qqe",
"@==<568086532525455555555566e665<=;<5799665555555555555555680qqq",
"@@=>568865522:222424552555668863<==<177765555544554455255555880q",
"&&=;<4675532,;::<255555545556652;==>2566655245555544554455558668",
"@@=;<235522,;=;:,222222242345522==*-,235445234332242233422225555",
"@@&=;2<<<<<=@==;::22,22:<<<1<2:<&$%&-:,,222:,,3,222222,,22:22222",
"@@@@@@====&&@@@@=;:::;-;===>@:@@$$$$%*-------;-;::::;-------@--@",
"ooO+@@@@@@@@OO@@&&==@-@@%@%@@@@++OOO##$$@@$$$$%&&--&&$$$$$$$@@@-",
"oOO+@@@@@@@@OO+@@%%&@@@@@@@@@++OOOOOO+##@@++@@$$%%%%$$$#@@@@@@@@",
"@@@@@@@@@@@@@@@@@&%@%@&@@@@@@@+@$$#$$$$$$$$$$$$$%%%%$$$$$$$$@@@@",
"====;=;>=======&&&%&&&=;==>=====********--***&&&%%%%&&&***--;-;:",
"1113223<<1><<<<>=&&=><>11111112<3311322211111<<>-&&-><<111111111",
"777765e54ee5e111>==>1175e41e65e5777777768787874<:--;<67788777777",
"e7e7e6e8ee667ee1<==>55e7e7eee6e6e700e8000000e085,;;,3700qqq999q9",
"7e7e6e6ee5eeeee1<>=<7eee7ee46e6e000000008e00ee05,;:,69wwqqq99q99",
"678888885e5eee41<=><586ee58888e5788788687800e005,>>,69qwq8887777",
"65555655555e7ee4<>;<55eee67656556566556656700075,>>,680988657757",
"5555555555667741<;>:37e6455455555555555555580075,;;>189986545555",
"4535555255567e71:==:2688555442555525552555567762,;;>168765554454",
"2555555525556552:==;2556555555552555255255555652;==:256665552552",
"252222252555552:;;==<25555252225225252522454552<===;<25525525225",
"222522222252222;-@@;:<2222222222222222222222222:-&&=::2222222222",
"::::2:,::::::::;=-===::<2:::2::22:2:::22<,,,::;-=&&&-::<2:2:::22",
":::-:=;:==;;;;;@=@@=@;;;@::;::;;;:;:@:@2;;=:;==&&&&&&=;;;;-;---:",
"@-;@&&&&&=&=@=@--@=@==@=@:;@@=@;@;@;@2@@*=&&&&&&@&&@&=&&@&-&@--@",
"@&@-&&@-@&=@@=-@@=@=@@=@@-@@@==@@;;@@@:@&@@&@&&&&&@&&@@&&@@--@@-",
"&&@@&@&@&@@=@@@=@=@@@=@=@@;@=@@=@@@@;;@@&@&%&@@&@@&@&@&&@&-@@-@@"
};
